<?xml version="1.0" encoding="UTF-8" standalone="no"?>
<!DOCTYPE svg PUBLIC "-//W3C//DTD SVG 1.1//EN" "http://www.w3.org/Graphics/SVG/1.1/DTD/svg11.dtd">
<svg width="100%" height="100%" viewBox="0 0 300 300" version="1.1" xmlns="http://www.w3.org/2000/svg" xmlns:xlink="http://www.w3.org/1999/xlink" xml:space="preserve" xmlns:serif="http://www.serif.com/" style="fill-rule:evenodd;clip-rule:evenodd;stroke-linecap:round;stroke-linejoin:round;stroke-miterlimit:1.5;">
    <g id="Layer1">
        <rect x="-4.733" y="-5.701" width="321.761" height="321.678"/>
    </g>
    <g transform="matrix(0.649538,0,0,0.649538,-1083.88,-224.768)">
        <g transform="matrix(1.04149,0,0,1.04149,1226.71,-90.2405)">
            <path d="M510.257,523.566C487.866,493.645 526.957,465.506 550.528,486.197" style="fill:none;stroke:white;stroke-width:6.16px;"/>
        </g>
        <g transform="matrix(1.04149,0,0,1.04149,1226.71,-90.2405)">
            <path d="M629.168,546.136C634.716,521.955 622.958,483.635 601.271,485.405" style="fill:none;stroke:white;stroke-width:6.16px;"/>
        </g>
        <g transform="matrix(1.04149,0,0,1.04149,1226.71,-90.2405)">
            <path d="M598.082,502.47C613.433,470.284 560.474,456.943 550.698,485.73" style="fill:none;stroke:white;stroke-width:6.16px;"/>
        </g>
        <g transform="matrix(1.2931,0,0,1.2931,1111.78,-218.603)">
            <path d="M494.037,510.751C455.095,496.78 436.47,576.346 490.327,569.535" style="fill:none;stroke:white;stroke-width:4.96px;"/>
        </g>
        <g transform="matrix(1.04149,0,0,1.04149,1226.71,-90.2405)">
            <path d="M458.583,568.626C426.672,581.747 433.385,622.292 462.442,624.869" style="fill:none;stroke:white;stroke-width:6.16px;"/>
        </g>
        <g transform="matrix(1.04149,0,0,1.04149,1226.71,-90.2405)">
            <path d="M468.024,619.126C452.45,632.943 458.156,672.493 482.357,672.768C493.863,672.899 580.444,672.731 596.283,673.102" style="fill:none;stroke:white;stroke-width:6.16px;"/>
        </g>
        <g transform="matrix(1.00652,0,0,1.04149,1247.11,-89.8734)">
            <path d="M501.826,572.117C474.869,632.591 500.419,672.992 535.111,655.813C540.076,653.354 557.153,645.073 553.092,624.944" style="fill:none;stroke:white;stroke-width:6.26px;"/>
        </g>
        <g transform="matrix(1.04149,0,0,1.04149,1226.71,-90.2405)">
            <path d="M573.643,498.293C499.051,513.778 506.003,581.015 554.42,585.419" style="fill:none;stroke:white;stroke-width:6.16px;"/>
        </g>
        <g transform="matrix(1.04149,0,0,1.04149,1226.71,-90.2405)">
            <path d="M546.802,529.629C602.383,501.816 642.161,540.985 631.289,578.236" style="fill:none;stroke:white;stroke-width:6.16px;"/>
        </g>
        <g transform="matrix(1.04149,0,0,1.04149,1226.71,-90.2405)">
            <path d="M578.433,545.556C535.513,568.117 560.547,635.217 603.681,615.089" style="fill:none;stroke:white;stroke-width:6.16px;"/>
        </g>
        <g transform="matrix(1.04149,0,0,1.04149,1226.71,-90.2405)">
            <path d="M603.628,572.398C636.105,554.606 637.464,598.399 631.326,622.679" style="fill:none;stroke:white;stroke-width:6.16px;"/>
        </g>
        <g transform="matrix(1.04149,0,0,1.04149,1226.71,-90.2405)">
            <path d="M606.627,608.592C594.699,628.726 614.698,642.249 630.309,624.93" style="fill:none;stroke:white;stroke-width:6.16px;"/>
        </g>
        <g transform="matrix(1.04149,0,0,1.04149,1226.71,-90.2405)">
            <path d="M570.555,657.965C574.705,663.88 577.971,670.165 588.722,672.657C591.002,673.185 618.922,673.663 620.597,672.727C633.373,665.591 635.144,650.999 631.041,623.601" style="fill:none;stroke:white;stroke-width:6.16px;"/>
        </g>
        <g transform="matrix(1.04149,0,0,1.04149,1127.38,-201.79)">
            <path d="M579.958,650.653C589.568,654.747 599.645,657.3 610.7,656.62" style="fill:none;stroke:white;stroke-width:6.16px;"/>
        </g>
    </g>
    <g transform="matrix(0.649538,0,0,0.649538,-1083.88,-224.768)">
        <g transform="matrix(1.0998,0,0,1.0998,1206.62,-127.837)">
            <path d="M634.914,526.521L634.914,506.596L648.388,493.122L660.882,493.122L674.652,479.352L696.536,479.352L709.365,492.181L739.16,492.181L754.494,507.515L744.222,517.786L766.698,517.786L793.302,544.39L793.302,570.42L778.358,585.364L790.796,572.926L801.019,572.926L818.922,590.829L818.922,608.166L794.298,625.824L814.265,648.328L789.062,671.004L765.908,670.969L728.717,656.987L765.908,670.969L714.659,671.071L674.735,671.15L688.322,657.562L674.735,671.15L649.946,671.293L633.952,657.218L634.352,602.92L652.552,584.195L634.6,566.293L634.914,526.521Z" style="fill:none;stroke:white;stroke-width:5.83px;"/>
        </g>
        <g transform="matrix(1.17097,0,0,1.17097,311.698,-125.67)">
            <path d="M1495.3,547.934L1474.17,526.807" style="fill:none;stroke:white;stroke-width:5.48px;"/>
        </g>
        <g transform="matrix(1.0217,0,0,0.734622,1268.95,90.8668)">
            <path d="M807.384,623.066L784.906,600.588L737.58,600.588L720.184,617.985L665.242,617.909" style="fill:none;stroke:white;stroke-width:7.21px;"/>
        </g>
        <g transform="matrix(1.0998,0,0,1.0998,1206.62,-103.511)">
            <path d="M635.653,525.052L678.018,525.052L696.932,506.138" style="fill:none;stroke:white;stroke-width:5.83px;"/>
        </g>
        <g transform="matrix(1.0998,0,0,1.0998,1206.62,-127.837)">
            <path d="M676.628,479.792L676.628,500.295L668.266,508.657" style="fill:none;stroke:white;stroke-width:5.83px;"/>
        </g>
        <g transform="matrix(1.17097,0,0,1.17097,311.698,-125.67)">
            <path d="M1458.13,563.092L1458.13,542.008L1449.46,533.331L1427.31,533.331" style="fill:none;stroke:white;stroke-width:5.48px;"/>
        </g>
        <g transform="matrix(1.17097,0,0,1.17097,320.114,-126.475)">
            <path d="M1440.87,615.147L1440.87,604.155L1449.88,595.109" style="fill:none;stroke:white;stroke-width:5.48px;"/>
        </g>
        <g transform="matrix(3.46757,0,0,3.46757,-376.165,-1334.4)">
            <circle cx="665.597" cy="511.867" r="3.476" style="fill:none;stroke:white;stroke-width:1.85px;"/>
        </g>
        <g transform="matrix(3.46757,0,0,3.46757,-325.938,-1331.82)">
            <circle cx="665.597" cy="511.867" r="3.476" style="fill:none;stroke:white;stroke-width:1.85px;"/>
        </g>
        <g transform="matrix(3.46757,0,0,3.46757,-279.439,-1292.89)">
            <circle cx="665.597" cy="511.867" r="3.476" style="fill:none;stroke:white;stroke-width:1.85px;"/>
        </g>
        <g transform="matrix(3.46757,0,0,3.46757,-337.409,-1275.8)">
            <circle cx="665.597" cy="511.867" r="3.476" style="fill:none;stroke:white;stroke-width:1.85px;"/>
        </g>
        <g transform="matrix(3.46757,0,0,3.46757,-372.777,-1229.72)">
            <circle cx="665.597" cy="511.867" r="3.476" style="fill:none;stroke:white;stroke-width:1.85px;"/>
        </g>
        <g transform="matrix(3.46757,0,0,3.46757,-279.821,-1213.91)">
            <circle cx="665.597" cy="511.867" r="3.476" style="fill:none;stroke:white;stroke-width:1.85px;"/>
        </g>
        <g transform="matrix(3.46757,0,0,3.46757,-334.883,-1188.82)">
            <circle cx="665.597" cy="511.867" r="3.476" style="fill:none;stroke:white;stroke-width:1.85px;"/>
        </g>
    </g>
    <g transform="matrix(3.69911,0,0,3.12972,-343.154,-284.165)">
        <g transform="matrix(11.1256,0,0,11.1256,109.531,160.384)">
            <path d="M0.217,-0.681L0.51,-0.163L0.51,-0.681L0.625,-0.681L0.625,0L0.495,0L0.201,-0.523L0.201,0L0.086,0L0.086,-0.681L0.217,-0.681Z" style="fill:white;fill-rule:nonzero;"/>
        </g>
        <g transform="matrix(11.1256,0,0,11.1256,117.441,160.384)">
            <path d="M0.425,-0.681L0.674,0L0.553,0L0.48,-0.199L0.235,-0.199C0.223,-0.166 0.211,-0.133 0.198,-0.1C0.186,-0.066 0.174,-0.033 0.162,0L0.043,0L0.292,-0.681L0.425,-0.681ZM0.357,-0.538L0.271,-0.296L0.444,-0.296L0.357,-0.538Z" style="fill:white;fill-rule:nonzero;"/>
        </g>
        <g transform="matrix(11.1256,0,0,11.1256,125.427,160.384)">
            <path d="M0.587,-0.681L0.587,-0.584L0.372,-0.584L0.372,0L0.257,0L0.257,-0.584L0.041,-0.584L0.041,-0.681L0.587,-0.681Z" style="fill:white;fill-rule:nonzero;"/>
        </g>
        <g transform="matrix(11.1256,0,0,11.1256,132.413,160.384)">
            <path d="M0.201,-0.681L0.201,-0.4L0.509,-0.4L0.509,-0.681L0.625,-0.681L0.625,0L0.509,0L0.509,-0.305L0.201,-0.305L0.201,0L0.086,0L0.086,-0.681L0.201,-0.681Z" style="fill:white;fill-rule:nonzero;"/>
        </g>
        <g transform="matrix(11.1256,0,0,11.1256,140.311,160.384)">
            <path d="M0.425,-0.681L0.674,0L0.553,0L0.48,-0.199L0.235,-0.199C0.223,-0.166 0.211,-0.133 0.198,-0.1C0.186,-0.066 0.174,-0.033 0.162,0L0.043,0L0.292,-0.681L0.425,-0.681ZM0.357,-0.538L0.271,-0.296L0.444,-0.296L0.357,-0.538Z" style="fill:white;fill-rule:nonzero;"/>
        </g>
        <g transform="matrix(11.1256,0,0,11.1256,148.297,160.384)">
            <path d="M0.217,-0.681L0.51,-0.163L0.51,-0.681L0.625,-0.681L0.625,0L0.495,0L0.201,-0.523L0.201,0L0.086,0L0.086,-0.681L0.217,-0.681Z" style="fill:white;fill-rule:nonzero;"/>
        </g>
        <g transform="matrix(11.1256,0,0,11.1256,95.2197,172.813)">
            <path d="M0.086,-0.681L0.362,-0.681C0.394,-0.681 0.422,-0.677 0.448,-0.667C0.473,-0.658 0.494,-0.646 0.511,-0.631C0.529,-0.615 0.542,-0.597 0.552,-0.577C0.561,-0.556 0.565,-0.534 0.565,-0.511C0.565,-0.483 0.559,-0.456 0.546,-0.431C0.533,-0.407 0.514,-0.385 0.488,-0.365C0.509,-0.356 0.526,-0.346 0.541,-0.334C0.556,-0.322 0.568,-0.308 0.577,-0.294C0.586,-0.279 0.593,-0.264 0.597,-0.248C0.602,-0.231 0.604,-0.215 0.604,-0.198C0.604,-0.17 0.598,-0.145 0.586,-0.121C0.575,-0.097 0.559,-0.076 0.539,-0.058C0.52,-0.04 0.497,-0.026 0.471,-0.016C0.445,-0.005 0.419,0 0.391,0L0.086,0L0.086,-0.681ZM0.201,-0.41L0.346,-0.41C0.362,-0.41 0.376,-0.412 0.39,-0.417C0.403,-0.422 0.415,-0.429 0.425,-0.438C0.435,-0.446 0.442,-0.456 0.448,-0.468C0.453,-0.48 0.456,-0.492 0.456,-0.504C0.456,-0.516 0.454,-0.527 0.45,-0.536C0.446,-0.546 0.44,-0.554 0.432,-0.562C0.424,-0.569 0.414,-0.574 0.401,-0.578C0.389,-0.582 0.375,-0.584 0.358,-0.584L0.201,-0.584L0.201,-0.41ZM0.201,-0.099L0.362,-0.099C0.377,-0.099 0.392,-0.101 0.406,-0.104C0.421,-0.108 0.435,-0.115 0.447,-0.123C0.458,-0.131 0.468,-0.142 0.476,-0.155C0.483,-0.167 0.487,-0.183 0.487,-0.201C0.487,-0.216 0.483,-0.23 0.477,-0.244C0.47,-0.258 0.46,-0.27 0.447,-0.28C0.434,-0.29 0.418,-0.298 0.4,-0.304C0.381,-0.31 0.361,-0.313 0.337,-0.313L0.201,-0.313L0.201,-0.099Z" style="fill:white;fill-rule:nonzero;"/>
        </g>
        <g transform="matrix(11.1256,0,0,11.1256,102.428,172.813)">
            <path d="M0.595,-0.481C0.595,-0.451 0.587,-0.423 0.572,-0.397C0.556,-0.371 0.533,-0.348 0.501,-0.329C0.516,-0.324 0.529,-0.316 0.54,-0.307C0.55,-0.297 0.559,-0.286 0.566,-0.274C0.573,-0.261 0.578,-0.248 0.581,-0.235C0.584,-0.221 0.586,-0.207 0.586,-0.193L0.586,-0.095C0.586,-0.082 0.589,-0.068 0.595,-0.051C0.601,-0.035 0.609,-0.018 0.62,0L0.494,0C0.489,-0.008 0.485,-0.016 0.482,-0.024C0.479,-0.033 0.476,-0.041 0.475,-0.049C0.473,-0.057 0.472,-0.065 0.472,-0.072C0.471,-0.079 0.471,-0.086 0.471,-0.091L0.471,-0.195C0.471,-0.205 0.469,-0.215 0.466,-0.225C0.463,-0.235 0.457,-0.244 0.45,-0.252C0.442,-0.26 0.432,-0.267 0.42,-0.272C0.408,-0.277 0.393,-0.279 0.375,-0.279L0.201,-0.279L0.201,0L0.086,0L0.086,-0.681L0.375,-0.681C0.41,-0.681 0.441,-0.675 0.469,-0.664C0.496,-0.652 0.519,-0.637 0.538,-0.618C0.557,-0.599 0.571,-0.577 0.58,-0.554C0.59,-0.53 0.595,-0.506 0.595,-0.481ZM0.201,-0.376L0.375,-0.376C0.389,-0.376 0.402,-0.378 0.415,-0.384C0.427,-0.389 0.438,-0.396 0.448,-0.405C0.458,-0.413 0.465,-0.424 0.471,-0.437C0.476,-0.45 0.479,-0.464 0.479,-0.479C0.479,-0.494 0.476,-0.508 0.471,-0.521C0.466,-0.534 0.459,-0.545 0.449,-0.554C0.44,-0.563 0.429,-0.571 0.417,-0.576C0.404,-0.581 0.39,-0.584 0.375,-0.584L0.201,-0.584L0.201,-0.376Z" style="fill:white;fill-rule:nonzero;"/>
        </g>
        <g transform="matrix(11.1256,0,0,11.1256,109.947,172.813)">
            <path d="M0.679,-0.342C0.679,-0.29 0.672,-0.241 0.658,-0.197C0.644,-0.153 0.623,-0.115 0.596,-0.083C0.57,-0.052 0.537,-0.027 0.498,-0.009C0.458,0.008 0.414,0.017 0.363,0.017C0.313,0.017 0.268,0.008 0.229,-0.01C0.19,-0.027 0.157,-0.052 0.131,-0.084C0.104,-0.115 0.083,-0.153 0.07,-0.198C0.056,-0.242 0.049,-0.29 0.049,-0.343C0.049,-0.396 0.056,-0.444 0.07,-0.487C0.083,-0.531 0.104,-0.568 0.131,-0.6C0.157,-0.631 0.19,-0.655 0.229,-0.672C0.268,-0.69 0.313,-0.698 0.363,-0.698C0.414,-0.698 0.458,-0.69 0.498,-0.672C0.537,-0.655 0.57,-0.63 0.596,-0.599C0.623,-0.568 0.644,-0.53 0.658,-0.487C0.672,-0.443 0.679,-0.395 0.679,-0.342ZM0.563,-0.343C0.563,-0.384 0.558,-0.421 0.548,-0.453C0.537,-0.485 0.523,-0.512 0.505,-0.534C0.487,-0.556 0.466,-0.573 0.442,-0.585C0.417,-0.596 0.391,-0.602 0.363,-0.602C0.335,-0.602 0.309,-0.596 0.284,-0.585C0.26,-0.573 0.239,-0.556 0.221,-0.534C0.204,-0.512 0.19,-0.485 0.179,-0.453C0.169,-0.421 0.164,-0.384 0.164,-0.343C0.164,-0.301 0.169,-0.264 0.179,-0.232C0.19,-0.199 0.204,-0.172 0.221,-0.149C0.239,-0.127 0.26,-0.109 0.284,-0.097C0.309,-0.086 0.335,-0.08 0.363,-0.08C0.391,-0.08 0.417,-0.086 0.442,-0.097C0.466,-0.109 0.487,-0.127 0.505,-0.149C0.523,-0.172 0.537,-0.199 0.548,-0.232C0.558,-0.264 0.563,-0.301 0.563,-0.343Z" style="fill:white;fill-rule:nonzero;"/>
        </g>
        <g transform="matrix(11.1256,0,0,11.1256,118.047,172.813)">
            <path d="M0.16,-0.238C0.161,-0.215 0.166,-0.193 0.174,-0.174C0.182,-0.155 0.193,-0.138 0.206,-0.124C0.219,-0.11 0.234,-0.099 0.251,-0.092C0.269,-0.084 0.288,-0.08 0.31,-0.08C0.328,-0.08 0.346,-0.082 0.363,-0.086C0.38,-0.09 0.395,-0.096 0.408,-0.105C0.421,-0.114 0.432,-0.125 0.439,-0.139C0.447,-0.154 0.451,-0.171 0.451,-0.191C0.451,-0.21 0.446,-0.226 0.434,-0.238C0.423,-0.251 0.408,-0.262 0.39,-0.271C0.372,-0.28 0.351,-0.289 0.328,-0.296C0.304,-0.304 0.28,-0.312 0.256,-0.32C0.232,-0.328 0.208,-0.337 0.185,-0.347C0.161,-0.358 0.14,-0.37 0.122,-0.385C0.104,-0.4 0.089,-0.418 0.078,-0.438C0.067,-0.459 0.061,-0.484 0.061,-0.514C0.061,-0.544 0.067,-0.57 0.079,-0.593C0.09,-0.616 0.107,-0.635 0.128,-0.651C0.149,-0.667 0.175,-0.678 0.204,-0.686C0.234,-0.694 0.266,-0.698 0.301,-0.698C0.348,-0.698 0.387,-0.691 0.418,-0.678C0.449,-0.664 0.474,-0.646 0.493,-0.625C0.512,-0.603 0.526,-0.579 0.534,-0.553C0.543,-0.526 0.548,-0.5 0.549,-0.475L0.432,-0.475C0.43,-0.497 0.425,-0.516 0.418,-0.532C0.41,-0.548 0.401,-0.561 0.389,-0.571C0.377,-0.582 0.364,-0.589 0.349,-0.594C0.334,-0.6 0.318,-0.602 0.301,-0.602C0.286,-0.602 0.271,-0.601 0.256,-0.597C0.241,-0.594 0.228,-0.589 0.216,-0.582C0.204,-0.575 0.195,-0.566 0.188,-0.555C0.18,-0.544 0.177,-0.53 0.177,-0.514C0.177,-0.495 0.182,-0.479 0.194,-0.466C0.205,-0.453 0.22,-0.442 0.238,-0.432C0.256,-0.423 0.277,-0.414 0.3,-0.406C0.324,-0.399 0.348,-0.391 0.372,-0.383C0.396,-0.374 0.42,-0.365 0.444,-0.355C0.467,-0.345 0.488,-0.333 0.506,-0.318C0.525,-0.303 0.539,-0.286 0.551,-0.265C0.562,-0.245 0.567,-0.22 0.567,-0.191C0.567,-0.157 0.561,-0.126 0.548,-0.1C0.535,-0.074 0.517,-0.052 0.494,-0.035C0.471,-0.018 0.444,-0.005 0.413,0.004C0.381,0.013 0.347,0.017 0.31,0.017C0.276,0.017 0.243,0.011 0.212,0C0.18,-0.012 0.152,-0.029 0.127,-0.051C0.102,-0.073 0.082,-0.1 0.067,-0.132C0.051,-0.163 0.043,-0.199 0.042,-0.238L0.16,-0.238Z" style="fill:white;fill-rule:nonzero;"/>
        </g>
        <g transform="matrix(11.1256,0,0,11.1256,124.832,172.813)">
            <path d="M0.201,-0.681L0.201,-0.099L0.529,-0.099L0.529,0L0.086,0L0.086,-0.681L0.201,-0.681Z" style="fill:white;fill-rule:nonzero;"/>
        </g>
        <g transform="matrix(11.1256,0,0,11.1256,131.128,172.813)">
            <path d="M0.425,-0.681L0.674,0L0.553,0L0.48,-0.199L0.235,-0.199C0.223,-0.166 0.211,-0.133 0.198,-0.1C0.186,-0.066 0.174,-0.033 0.162,0L0.043,0L0.292,-0.681L0.425,-0.681ZM0.357,-0.538L0.271,-0.296L0.444,-0.296L0.357,-0.538Z" style="fill:white;fill-rule:nonzero;"/>
        </g>
        <g transform="matrix(11.1256,0,0,11.1256,139.114,172.813)">
            <path d="M0.45,-0.486L0.309,0L0.199,0L0.026,-0.681L0.146,-0.681L0.259,-0.229L0.397,-0.681L0.502,-0.681L0.64,-0.233L0.755,-0.681L0.875,-0.681L0.701,0L0.591,0L0.45,-0.486Z" style="fill:white;fill-rule:nonzero;"/>
        </g>
        <g transform="matrix(11.1256,0,0,11.1256,149.136,172.813)">
            <path d="M0.16,-0.238C0.161,-0.215 0.166,-0.193 0.174,-0.174C0.182,-0.155 0.193,-0.138 0.206,-0.124C0.219,-0.11 0.234,-0.099 0.251,-0.092C0.269,-0.084 0.288,-0.08 0.31,-0.08C0.328,-0.08 0.346,-0.082 0.363,-0.086C0.38,-0.09 0.395,-0.096 0.408,-0.105C0.421,-0.114 0.432,-0.125 0.439,-0.139C0.447,-0.154 0.451,-0.171 0.451,-0.191C0.451,-0.21 0.446,-0.226 0.434,-0.238C0.423,-0.251 0.408,-0.262 0.39,-0.271C0.372,-0.28 0.351,-0.289 0.328,-0.296C0.304,-0.304 0.28,-0.312 0.256,-0.32C0.232,-0.328 0.208,-0.337 0.185,-0.347C0.161,-0.358 0.14,-0.37 0.122,-0.385C0.104,-0.4 0.089,-0.418 0.078,-0.438C0.067,-0.459 0.061,-0.484 0.061,-0.514C0.061,-0.544 0.067,-0.57 0.079,-0.593C0.09,-0.616 0.107,-0.635 0.128,-0.651C0.149,-0.667 0.175,-0.678 0.204,-0.686C0.234,-0.694 0.266,-0.698 0.301,-0.698C0.348,-0.698 0.387,-0.691 0.418,-0.678C0.449,-0.664 0.474,-0.646 0.493,-0.625C0.512,-0.603 0.526,-0.579 0.534,-0.553C0.543,-0.526 0.548,-0.5 0.549,-0.475L0.432,-0.475C0.43,-0.497 0.425,-0.516 0.418,-0.532C0.41,-0.548 0.401,-0.561 0.389,-0.571C0.377,-0.582 0.364,-0.589 0.349,-0.594C0.334,-0.6 0.318,-0.602 0.301,-0.602C0.286,-0.602 0.271,-0.601 0.256,-0.597C0.241,-0.594 0.228,-0.589 0.216,-0.582C0.204,-0.575 0.195,-0.566 0.188,-0.555C0.18,-0.544 0.177,-0.53 0.177,-0.514C0.177,-0.495 0.182,-0.479 0.194,-0.466C0.205,-0.453 0.22,-0.442 0.238,-0.432C0.256,-0.423 0.277,-0.414 0.3,-0.406C0.324,-0.399 0.348,-0.391 0.372,-0.383C0.396,-0.374 0.42,-0.365 0.444,-0.355C0.467,-0.345 0.488,-0.333 0.506,-0.318C0.525,-0.303 0.539,-0.286 0.551,-0.265C0.562,-0.245 0.567,-0.22 0.567,-0.191C0.567,-0.157 0.561,-0.126 0.548,-0.1C0.535,-0.074 0.517,-0.052 0.494,-0.035C0.471,-0.018 0.444,-0.005 0.413,0.004C0.381,0.013 0.347,0.017 0.31,0.017C0.276,0.017 0.243,0.011 0.212,0C0.18,-0.012 0.152,-0.029 0.127,-0.051C0.102,-0.073 0.082,-0.1 0.067,-0.132C0.051,-0.163 0.043,-0.199 0.042,-0.238L0.16,-0.238Z" style="fill:white;fill-rule:nonzero;"/>
        </g>
        <g transform="matrix(11.1256,0,0,11.1256,155.921,172.813)">
            <path d="M0.202,-0.681L0.202,-0.383L0.5,-0.681L0.648,-0.681L0.372,-0.406L0.655,0L0.516,0L0.293,-0.326L0.202,-0.237L0.202,0L0.086,0L0.086,-0.681L0.202,-0.681Z" style="fill:white;fill-rule:nonzero;"/>
        </g>
        <g transform="matrix(11.1256,0,0,11.1256,163.478,172.813)">
            <path d="M0.318,-0.379L0.489,-0.681L0.621,-0.681L0.374,-0.27L0.374,0L0.258,0L0.258,-0.27L0.012,-0.681L0.143,-0.681L0.318,-0.379Z" style="fill:white;fill-rule:nonzero;"/>
        </g>
    </g>
</svg>
