<?xml version="1.0" encoding="UTF-8" standalone="no"?>
<!DOCTYPE svg PUBLIC "-//W3C//DTD SVG 1.1//EN" "http://www.w3.org/Graphics/SVG/1.1/DTD/svg11.dtd">
<svg width="100%" height="100%" viewBox="0 0 300 300" version="1.1" xmlns="http://www.w3.org/2000/svg" xmlns:xlink="http://www.w3.org/1999/xlink" xml:space="preserve" xmlns:serif="http://www.serif.com/" style="fill-rule:evenodd;clip-rule:evenodd;stroke-linecap:round;stroke-linejoin:round;stroke-miterlimit:1.5;">
    <g id="Layer1">
        <rect x="-4.733" y="-5.701" width="321.761" height="321.678"/>
    </g>
    <g transform="matrix(0.649538,0,0,0.649538,-1084.4,-208.92)">
        <g transform="matrix(1.04149,0,0,1.04149,1226.71,-90.2405)">
            <path d="M510.257,523.566C487.866,493.645 526.957,465.506 550.528,486.197" style="fill:none;stroke:white;stroke-width:6.16px;"/>
        </g>
        <g transform="matrix(1.04149,0,0,1.04149,1226.71,-90.2405)">
            <path d="M629.168,546.136C634.716,521.955 622.958,483.635 601.271,485.405" style="fill:none;stroke:white;stroke-width:6.16px;"/>
        </g>
        <g transform="matrix(1.04149,0,0,1.04149,1226.71,-90.2405)">
            <path d="M598.082,502.47C613.433,470.284 560.474,456.943 550.698,485.73" style="fill:none;stroke:white;stroke-width:6.16px;"/>
        </g>
        <g transform="matrix(1.2931,0,0,1.2931,1111.78,-218.603)">
            <path d="M494.037,510.751C455.095,496.78 436.47,576.346 490.327,569.535" style="fill:none;stroke:white;stroke-width:4.96px;"/>
        </g>
        <g transform="matrix(1.04149,0,0,1.04149,1226.71,-90.2405)">
            <path d="M458.583,568.626C426.672,581.747 433.385,622.292 462.442,624.869" style="fill:none;stroke:white;stroke-width:6.16px;"/>
        </g>
        <g transform="matrix(1.04149,0,0,1.04149,1226.71,-90.2405)">
            <path d="M468.024,619.126C452.45,632.943 458.156,672.493 482.357,672.768C493.863,672.899 580.444,672.731 596.283,673.102" style="fill:none;stroke:white;stroke-width:6.16px;"/>
        </g>
        <g transform="matrix(1.00652,0,0,1.04149,1247.11,-89.8734)">
            <path d="M501.826,572.117C474.869,632.591 500.419,672.992 535.111,655.813C540.076,653.354 557.153,645.073 553.092,624.944" style="fill:none;stroke:white;stroke-width:6.26px;"/>
        </g>
        <g transform="matrix(1.04149,0,0,1.04149,1226.71,-90.2405)">
            <path d="M573.643,498.293C499.051,513.778 506.003,581.015 554.42,585.419" style="fill:none;stroke:white;stroke-width:6.16px;"/>
        </g>
        <g transform="matrix(1.04149,0,0,1.04149,1226.71,-90.2405)">
            <path d="M546.802,529.629C602.383,501.816 642.161,540.985 631.289,578.236" style="fill:none;stroke:white;stroke-width:6.16px;"/>
        </g>
        <g transform="matrix(1.04149,0,0,1.04149,1226.71,-90.2405)">
            <path d="M578.433,545.556C535.513,568.117 560.547,635.217 603.681,615.089" style="fill:none;stroke:white;stroke-width:6.16px;"/>
        </g>
        <g transform="matrix(1.04149,0,0,1.04149,1226.71,-90.2405)">
            <path d="M603.628,572.398C636.105,554.606 637.464,598.399 631.326,622.679" style="fill:none;stroke:white;stroke-width:6.16px;"/>
        </g>
        <g transform="matrix(1.04149,0,0,1.04149,1226.71,-90.2405)">
            <path d="M606.627,608.592C594.699,628.726 614.698,642.249 630.309,624.93" style="fill:none;stroke:white;stroke-width:6.16px;"/>
        </g>
        <g transform="matrix(1.04149,0,0,1.04149,1226.71,-90.2405)">
            <path d="M570.555,657.965C574.705,663.88 577.971,670.165 588.722,672.657C591.002,673.185 618.922,673.663 620.597,672.727C633.373,665.591 635.144,650.999 631.041,623.601" style="fill:none;stroke:white;stroke-width:6.16px;"/>
        </g>
        <g transform="matrix(1.04149,0,0,1.04149,1127.38,-201.79)">
            <path d="M579.958,650.653C589.568,654.747 599.645,657.3 610.7,656.62" style="fill:none;stroke:white;stroke-width:6.16px;"/>
        </g>
    </g>
    <g transform="matrix(0.649538,0,0,0.649538,-1084.4,-208.92)">
        <g transform="matrix(1.0998,0,0,1.0998,1206.62,-127.837)">
            <path d="M634.914,526.521L634.914,506.596L648.388,493.122L660.882,493.122L674.652,479.352L696.536,479.352L709.365,492.181L739.16,492.181L754.494,507.515L744.222,517.786L766.698,517.786L793.302,544.39L793.302,570.42L778.358,585.364L790.796,572.926L801.019,572.926L818.922,590.829L818.922,608.166L794.298,625.824L814.265,648.328L789.062,671.004L765.908,670.969L728.717,656.987L765.908,670.969L714.659,671.071L674.735,671.15L688.322,657.562L674.735,671.15L649.946,671.293L633.952,657.218L634.352,602.92L652.552,584.195L634.6,566.293L634.914,526.521Z" style="fill:none;stroke:white;stroke-width:5.83px;"/>
        </g>
        <g transform="matrix(1.17097,0,0,1.17097,311.698,-125.67)">
            <path d="M1495.3,547.934L1474.17,526.807" style="fill:none;stroke:white;stroke-width:5.48px;"/>
        </g>
        <g transform="matrix(1.0217,0,0,0.734622,1268.95,90.8668)">
            <path d="M807.384,623.066L784.906,600.588L737.58,600.588L720.184,617.985L665.242,617.909" style="fill:none;stroke:white;stroke-width:7.21px;"/>
        </g>
        <g transform="matrix(1.0998,0,0,1.0998,1206.62,-103.511)">
            <path d="M635.653,525.052L678.018,525.052L696.932,506.138" style="fill:none;stroke:white;stroke-width:5.83px;"/>
        </g>
        <g transform="matrix(1.0998,0,0,1.0998,1206.62,-127.837)">
            <path d="M676.628,479.792L676.628,500.295L668.266,508.657" style="fill:none;stroke:white;stroke-width:5.83px;"/>
        </g>
        <g transform="matrix(1.17097,0,0,1.17097,311.698,-125.67)">
            <path d="M1458.13,563.092L1458.13,542.008L1449.46,533.331L1427.31,533.331" style="fill:none;stroke:white;stroke-width:5.48px;"/>
        </g>
        <g transform="matrix(1.17097,0,0,1.17097,320.114,-126.475)">
            <path d="M1440.87,615.147L1440.87,604.155L1449.88,595.109" style="fill:none;stroke:white;stroke-width:5.48px;"/>
        </g>
        <g transform="matrix(3.46757,0,0,3.46757,-376.165,-1334.4)">
            <circle cx="665.597" cy="511.867" r="3.476" style="fill:none;stroke:white;stroke-width:1.85px;"/>
        </g>
        <g transform="matrix(3.46757,0,0,3.46757,-325.938,-1331.82)">
            <circle cx="665.597" cy="511.867" r="3.476" style="fill:none;stroke:white;stroke-width:1.85px;"/>
        </g>
        <g transform="matrix(3.46757,0,0,3.46757,-279.439,-1292.89)">
            <circle cx="665.597" cy="511.867" r="3.476" style="fill:none;stroke:white;stroke-width:1.85px;"/>
        </g>
        <g transform="matrix(3.46757,0,0,3.46757,-337.409,-1275.8)">
            <circle cx="665.597" cy="511.867" r="3.476" style="fill:none;stroke:white;stroke-width:1.85px;"/>
        </g>
        <g transform="matrix(3.46757,0,0,3.46757,-372.777,-1229.72)">
            <circle cx="665.597" cy="511.867" r="3.476" style="fill:none;stroke:white;stroke-width:1.85px;"/>
        </g>
        <g transform="matrix(3.46757,0,0,3.46757,-279.821,-1213.91)">
            <circle cx="665.597" cy="511.867" r="3.476" style="fill:none;stroke:white;stroke-width:1.85px;"/>
        </g>
        <g transform="matrix(3.46757,0,0,3.46757,-334.883,-1188.82)">
            <circle cx="665.597" cy="511.867" r="3.476" style="fill:none;stroke:white;stroke-width:1.85px;"/>
        </g>
    </g>
    <g transform="matrix(2.24707,0,0,2.24707,-173.137,-127.057)">
        <text x="76.468px" y="160.384px" style="font-family:'BanglaSangamMN-Bold', 'Bangla Sangam MN';font-weight:700;font-size:16.667px;fill:white;">LEADING SWEEP</text>
    </g>
</svg>
