<?xml version="1.0" encoding="UTF-8" standalone="no"?>
<!DOCTYPE svg PUBLIC "-//W3C//DTD SVG 1.1//EN" "http://www.w3.org/Graphics/SVG/1.1/DTD/svg11.dtd">
<svg width="100%" height="100%" viewBox="0 0 500 500" version="1.1" xmlns="http://www.w3.org/2000/svg" xmlns:xlink="http://www.w3.org/1999/xlink" xml:space="preserve" xmlns:serif="http://www.serif.com/" style="fill-rule:evenodd;clip-rule:evenodd;stroke-linecap:round;stroke-linejoin:round;stroke-miterlimit:1.5;">
    <g transform="matrix(0.846032,0,0,0.834018,0.18516,0.00448333)">
        <g id="Layer1">
            <rect x="-14.581" y="-6.546" width="626.782" height="623.252"/>
        </g>
    </g>
    <g transform="matrix(0.772966,0,0,0.772966,-1216.53,-283.144)">
        <g transform="matrix(1.04149,0,0,1.04149,1226.71,-90.2405)">
            <path d="M510.257,523.566C487.866,493.645 526.957,465.506 550.528,486.197" style="fill:none;stroke:white;stroke-width:6.47px;"/>
        </g>
        <g transform="matrix(1.04149,0,0,1.04149,1226.71,-90.2405)">
            <path d="M629.266,545.652C634.813,521.471 624.595,483.694 602.907,485.464" style="fill:none;stroke:white;stroke-width:6.47px;"/>
        </g>
        <g transform="matrix(1.04149,0,0,1.04149,1226.71,-90.2405)">
            <path d="M598.082,502.47C613.433,470.284 560.689,456.198 550.912,484.985" style="fill:none;stroke:white;stroke-width:6.47px;"/>
        </g>
        <g transform="matrix(1.2931,0,0,1.2931,1111.78,-218.603)">
            <path d="M493.326,510.623C454.385,496.652 436.47,576.346 490.327,569.535" style="fill:none;stroke:white;stroke-width:5.21px;"/>
        </g>
        <g transform="matrix(1.04149,0,0,1.04149,1226.71,-90.2405)">
            <path d="M457.95,568.929C426.039,582.05 433.385,622.292 462.442,624.869" style="fill:none;stroke:white;stroke-width:6.47px;"/>
        </g>
        <g transform="matrix(1.04149,0,0,1.04149,1226.71,-90.2405)">
            <path d="M468.024,619.126C452.45,632.943 458.156,672.493 482.357,672.768C493.863,672.899 505.939,672.662 521.778,673.033" style="fill:none;stroke:white;stroke-width:6.47px;"/>
        </g>
        <g transform="matrix(1.00652,0,0,1.04149,1247.11,-89.8734)">
            <path d="M501.826,572.117C474.869,632.591 500.419,672.992 535.111,655.813C540.076,653.354 557.153,645.073 553.092,624.944" style="fill:none;stroke:white;stroke-width:6.58px;"/>
        </g>
        <g transform="matrix(1.04149,0,0,1.04149,1226.71,-90.2405)">
            <path d="M573.643,498.293C499.051,513.778 506.003,581.015 554.42,585.419" style="fill:none;stroke:white;stroke-width:6.47px;"/>
        </g>
        <g transform="matrix(1.04149,0,0,1.04149,1226.71,-90.2405)">
            <path d="M546.802,529.629C602.383,501.816 642.161,540.985 631.289,578.236" style="fill:none;stroke:white;stroke-width:6.47px;"/>
        </g>
        <g transform="matrix(1.04149,0,0,1.04149,1226.71,-90.2405)">
            <path d="M578.433,545.556C535.513,568.117 560.547,635.217 603.681,615.089" style="fill:none;stroke:white;stroke-width:6.47px;"/>
        </g>
        <g transform="matrix(1.04149,0,0,1.04149,1226.71,-90.2405)">
            <path d="M603.628,572.398C636.105,554.606 637.464,598.399 631.326,622.679" style="fill:none;stroke:white;stroke-width:6.47px;"/>
        </g>
        <g transform="matrix(1.04149,0,0,1.04149,1226.71,-90.2405)">
            <path d="M606.627,608.592C594.699,628.726 614.698,642.249 630.309,624.93" style="fill:none;stroke:white;stroke-width:6.47px;"/>
        </g>
        <g transform="matrix(1.04149,0,0,1.04149,1226.71,-90.2405)">
            <path d="M570.555,657.965C574.705,663.88 577.971,670.165 588.722,672.657C591.002,673.185 618.922,673.663 620.597,672.727C633.373,665.591 634.941,649.493 630.838,622.095" style="fill:none;stroke:white;stroke-width:6.47px;"/>
        </g>
        <g transform="matrix(1.04149,0,0,1.04149,1127.38,-201.79)">
            <path d="M579.958,650.653C589.568,654.747 599.645,657.3 610.7,656.62" style="fill:none;stroke:white;stroke-width:6.47px;"/>
        </g>
    </g>
    <g transform="matrix(0.772966,0,0,0.772966,-1216.53,-283.144)">
        <g transform="matrix(1.0998,0,0,1.0998,1206.62,-127.837)">
            <path d="M634.914,526.521L634.914,506.596L648.388,493.122L660.882,493.122L674.652,479.352L696.536,479.352L709.365,492.181L739.16,492.181L754.494,507.515L744.222,517.786L766.698,517.786L793.302,544.39L793.302,570.42L778.358,585.364L790.796,572.926L801.019,572.926L818.922,590.829L818.922,608.166L794.298,625.824L814.265,648.328L789.062,671.796L767.447,671.473L728.717,656.987L765.908,670.969L674.735,671.15L688.322,657.562L674.735,671.15L649.946,671.293L633.952,657.218L634.352,602.92L652.552,584.195L634.6,566.293L634.914,526.521Z" style="fill:none;stroke:white;stroke-width:6.13px;"/>
        </g>
        <g transform="matrix(1.17097,0,0,1.17097,311.698,-125.67)">
            <path d="M1495.3,547.934L1475.33,527.963" style="fill:none;stroke:white;stroke-width:5.75px;"/>
        </g>
        <g transform="matrix(1.0217,0,0,0.734622,1268.95,90.8668)">
            <path d="M803.807,619.489L784.906,600.588L737.58,600.588L720.184,617.985L667.266,617.985" style="fill:none;stroke:white;stroke-width:7.57px;"/>
        </g>
        <g transform="matrix(1.0998,0,0,1.0998,1206.62,-103.511)">
            <path d="M635.653,525.052L678.018,525.052L695.255,507.814" style="fill:none;stroke:white;stroke-width:6.13px;"/>
        </g>
        <g transform="matrix(1.0998,0,0,1.0998,1206.62,-127.837)">
            <path d="M676.628,479.792L676.628,500.295L668.266,508.657" style="fill:none;stroke:white;stroke-width:6.13px;"/>
        </g>
        <g transform="matrix(1.17097,0,0,1.17097,311.698,-125.67)">
            <path d="M1458.13,562.206L1458.13,542.008L1449.46,533.331L1426.38,533.331" style="fill:none;stroke:white;stroke-width:5.75px;"/>
        </g>
        <g transform="matrix(1.17097,0,0,1.17097,320.114,-126.475)">
            <path d="M1440.87,615.147L1440.87,604.155L1448.65,596.38" style="fill:none;stroke:white;stroke-width:5.75px;"/>
        </g>
        <g transform="matrix(3.46757,0,0,3.46757,-376.165,-1334.4)">
            <circle cx="665.597" cy="511.867" r="3.476" style="fill:none;stroke:white;stroke-width:1.94px;"/>
        </g>
        <g transform="matrix(3.46757,0,0,3.46757,-325.938,-1331.82)">
            <circle cx="665.597" cy="511.867" r="3.476" style="fill:none;stroke:white;stroke-width:1.94px;"/>
        </g>
        <g transform="matrix(3.46757,0,0,3.46757,-279.439,-1292.89)">
            <circle cx="665.597" cy="511.867" r="3.476" style="fill:none;stroke:white;stroke-width:1.94px;"/>
        </g>
        <g transform="matrix(3.46757,0,0,3.46757,-337.409,-1275.8)">
            <circle cx="665.597" cy="511.867" r="3.476" style="fill:none;stroke:white;stroke-width:1.94px;"/>
        </g>
        <g transform="matrix(3.46757,0,0,3.46757,-372.777,-1229.72)">
            <circle cx="665.597" cy="511.867" r="3.476" style="fill:none;stroke:white;stroke-width:1.94px;"/>
        </g>
        <g transform="matrix(3.46757,0,0,3.46757,-279.821,-1213.91)">
            <circle cx="665.597" cy="511.867" r="3.476" style="fill:none;stroke:white;stroke-width:1.94px;"/>
        </g>
        <g transform="matrix(3.46757,0,0,3.46757,-334.883,-1188.82)">
            <circle cx="665.597" cy="511.867" r="3.476" style="fill:none;stroke:white;stroke-width:1.94px;"/>
        </g>
    </g>
    <g transform="matrix(0.833333,0,0,0.833333,-1330.91,-346.505)">
        <path d="M2093.43,642.585L2092.34,651.082L2087.04,672.202L2083.76,699.346L2076.27,714.473L2067.68,714.045L2065.86,706.007L2068.23,724.511L2075.79,729.112C2077.51,730.06 2078.12,732.301 2082.18,734.966C2084.12,737.586 2084.37,742.398 2083.92,745.86L2078.87,758.183L2074.51,774.128C2074.26,777.541 2072.5,781.101 2071.18,785.04C2070.61,786.76 2069.89,788.551 2069,790.431C2066.19,794.495 2060.34,797.712 2056.29,800.229C2050.7,803.707 2038.32,815.344 2038.32,815.344L2032.74,824.511C2032.16,830.088 2032.68,835.821 2033.81,841.642C2037.01,847.533 2036.97,849.928 2036.38,859.998C2036.04,863.375 2034.94,870.035 2031.19,878.752L2022.62,891.055L2013.82,903.405L2008.06,922.78C2005.22,930.715 2001.62,938.263 1996.87,945.225L1976.37,966.377L1957.68,979.727C1951.73,984.399 1943.83,988.84 1933.82,993.032C1925.41,995.079 1911.81,995.257 1898.04,992.602C1885.33,994.185 1876.88,996.874 1858.1,992.875C1848.94,990.136 1842.16,986.267 1836.9,981.68L1812.28,962.219L1792.89,941.394C1787.49,932.559 1783.98,924.86 1781.47,917.757L1775.32,894.907C1770.05,885.44 1767.03,887.197 1762.9,883.542C1758.82,876.25 1756.23,869.743 1754.33,863.357C1753.94,852.93 1754.52,851.563 1756.7,845.084C1758.77,835.339 1758.38,828.048 1757.86,823.649C1753.13,819.532 1749.31,815.597 1743.32,812.995C1734.18,809.044 1729.43,804.001 1725.19,799.491C1719.36,790.389 1714.37,781.054 1710.99,771.276L1702.59,748.672C1701.85,741.934 1702.82,736.097 1704.66,730.715C1710.84,724.529 1716.88,720.208 1722.83,717.227L1727.88,698.701L1724.41,709.925C1722.01,708.943 1719.09,708.438 1716.26,706.776C1713.87,705.378 1711.13,705.679 1708.44,703.788L1707.99,685.295L1703.21,660.602L1699.55,642.585L2093.43,642.585Z" style="fill:none;stroke:white;stroke-width:6.25px;"/>
    </g>
    <g transform="matrix(0.997218,0,0,0.997218,-1641.8,-2127.76)">
        <path d="M1897.02,2524.6L1897.02,2560.13" style="fill:none;stroke:white;stroke-width:3.48px;stroke-linecap:butt;"/>
    </g>
    <g transform="matrix(0.833333,0,0,0.833333,-1303.41,-1713.22)">
        <path d="M1897.02,2524.6L1897.02,2560.13" style="fill:none;stroke:white;stroke-width:4.17px;stroke-linecap:butt;"/>
    </g>
    <g transform="matrix(0.833333,0,0,0.833333,-1276.74,-1719.05)">
        <path d="M1897.02,2524.6L1897.02,2560.13" style="fill:none;stroke:white;stroke-width:4.17px;stroke-linecap:butt;"/>
    </g>
    <g transform="matrix(0.833333,0,0,0.833333,-1358.41,-1713.22)">
        <path d="M1897.02,2524.6L1897.02,2560.13" style="fill:none;stroke:white;stroke-width:4.17px;stroke-linecap:butt;"/>
    </g>
    <g transform="matrix(0.833333,0,0,0.833333,-1385.08,-1719.05)">
        <path d="M1897.02,2524.6L1897.02,2560.13" style="fill:none;stroke:white;stroke-width:4.17px;stroke-linecap:butt;"/>
    </g>
    <g transform="matrix(0.833333,0,0,1.06157,-277.327,-571.783)">
        <path d="M715.824,856.972C744.429,858.955 772.088,855.79 774.713,850.414L766.96,863.458C755.374,862.422 745.319,861.884 741.812,863.477C739.873,870.295 739.815,876.744 741.045,882.941C741.596,892.122 740.053,896.611 737.679,899.063C730.468,901.534 723.867,906.159 718.002,913.384C718.002,913.384 711.637,858.234 715.824,856.972Z" style="fill:white;stroke:white;stroke-width:2px;"/>
    </g>
    <g transform="matrix(-0.833333,0,0,1.06157,773.965,-571.89)">
        <path d="M715.824,856.972C744.429,858.955 771.704,856.426 776.202,851.515L766.96,863.458C755.374,862.422 745.319,861.884 741.812,863.477C739.873,870.295 739.815,876.744 741.045,882.941C741.596,892.122 740.053,896.611 737.679,899.063C730.468,901.534 723.867,906.159 718.002,913.384C718.002,913.384 711.637,858.234 715.824,856.972Z" style="fill:white;stroke:white;stroke-width:2px;"/>
    </g>
    <g transform="matrix(0.833333,0,0,0.833333,-277.327,-376.04)">
        <path d="M660.537,741.873C661.016,748.554 661.395,755.717 664.03,762.758C665.459,767.722 668.207,773.167 673.028,779.371C678.899,785.602 685.185,790.347 691.79,793.946C699.186,798.469 707.129,801.977 715.423,804.834C724.489,807.172 733.369,808.943 742.046,810.091C751.355,809.574 758.461,807.665 763.869,804.682C774.784,794.088 775.89,782.307 777.094,771.36C778.541,758.221 778.332,746.964 776.93,735.165C766.09,716.88 757.898,709.619 751.296,708.986C745.733,710.02 740.637,709.579 735.753,708.467C727.544,704.935 719.658,702.679 712.109,701.758C692.857,706.816 671.119,716.325 660.537,741.873Z" style="fill:white;stroke:white;stroke-width:4.17px;"/>
    </g>
    <g transform="matrix(-0.833333,0,0,0.833333,776.532,-376.954)">
        <path d="M660.537,741.873C661.016,748.554 661.395,755.717 664.03,762.758C665.459,767.722 668.207,773.167 673.028,779.371C678.899,785.602 685.185,790.347 691.79,793.946C699.186,798.469 707.129,801.977 715.423,804.834C724.489,807.172 733.369,808.943 742.046,810.091C751.355,809.574 758.461,807.665 763.869,804.682C774.784,794.088 775.89,782.307 777.094,771.36C778.541,758.221 778.332,746.964 776.93,735.165C766.09,716.88 757.898,709.619 751.296,708.986C745.733,710.02 740.637,709.579 735.753,708.467C727.544,704.935 719.658,702.679 712.109,701.758C692.857,706.816 671.119,716.325 660.537,741.873Z" style="fill:white;stroke:white;stroke-width:4.17px;"/>
    </g>
    <g transform="matrix(0.833333,0,0,0.833333,-277.327,-377.707)">
        <path d="M628.332,783.22C630.376,798.476 628.935,811.201 628.238,824.466C627.654,833.371 626.567,842.653 623.902,852.006C622.323,858.51 620.654,865.046 614.902,868.327C610.931,867.791 608.178,865.839 605.893,863.343C600.815,858.307 596.977,850.951 595.927,843.849C594.862,836.646 594.609,831.119 595.398,825.85C599.307,813.536 603.618,804.626 608.218,798.16C615.576,787.592 622.246,782.909 628.332,783.22" style="stroke:white;stroke-width:4.17px;"/>
    </g>
    <g transform="matrix(-0.833333,0,0,0.833333,777.089,-377.712)">
        <path d="M628.332,783.22C630.376,798.476 628.935,811.201 628.238,824.466C627.654,833.371 626.567,842.653 623.902,852.006C622.323,858.51 620.654,865.046 614.902,868.327C610.931,867.791 608.178,865.839 605.893,863.343C600.815,858.307 596.977,850.951 595.927,843.849C594.862,836.646 594.609,831.119 595.398,825.85C599.307,813.536 603.618,804.626 608.218,798.16C615.576,787.592 622.246,782.909 628.332,783.22" style="stroke:white;stroke-width:4.17px;"/>
    </g>
    <g transform="matrix(-0.833333,1.02054e-16,-1.02054e-16,-0.833333,1826.65,2461.67)">
        <path d="M1800.11,2502.44C1800.11,2451.77 1988.97,2453.54 1988.97,2502.42" style="fill:none;stroke:white;stroke-width:8.33px;stroke-linecap:butt;"/>
    </g>
</svg>
